<?xml version="1.0" standalone="no"?>
<!DOCTYPE svg PUBLIC "-//W3C//DTD SVG 20010904//EN"
 "http://www.w3.org/TR/2001/REC-SVG-20010904/DTD/svg10.dtd">
<svg version="1.0" xmlns="http://www.w3.org/2000/svg"
 width="438.000000pt" height="605.000000pt" viewBox="0 0 438.000000 605.000000"
 preserveAspectRatio="xMidYMid meet">

<g transform="translate(0.000000,605.000000) scale(0.100000,-0.100000)"
fill="#000000" stroke="none">
<path d="M1 5198 c0 -848 1 -853 18 -768 97 453 475 976 921 1272 294 196 676
320 1050 341 30 2 -405 4 -967 5 l-1023 2 1 -852z"/>
<path d="M2295 6043 c406 -22 809 -146 1134 -348 394 -245 712 -691 836 -1172
34 -129 44 -284 22 -335 -14 -33 -20 -38 -49 -38 -28 0 -43 10 -89 57 -31 32
-94 105 -139 163 -318 399 -565 613 -895 776 -417 205 -892 256 -1369 149
-517 -116 -944 -413 -1169 -810 -122 -216 -174 -455 -100 -455 28 0 61 26 224
177 302 278 503 413 789 528 511 205 1014 219 1454 39 221 -91 380 -198 575
-388 318 -312 425 -571 322 -781 -76 -153 -282 -270 -443 -252 -88 11 -132 39
-265 172 -180 179 -328 272 -528 330 -133 38 -215 48 -370 43 -123 -4 -150 -8
-227 -35 -272 -95 -474 -330 -509 -593 -20 -150 18 -237 92 -211 65 23 114 75
173 188 120 230 222 324 381 354 78 14 173 -4 274 -52 147 -69 287 -233 279
-326 -3 -38 -3 -38 -48 -37 -29 0 -85 17 -155 45 -107 42 -113 44 -220 44
-100 0 -115 -2 -160 -26 -75 -40 -138 -113 -283 -331 -230 -345 -456 -632
-620 -790 -92 -88 -132 -108 -146 -73 -19 50 89 356 228 645 30 62 36 85 36
140 0 77 -22 129 -102 247 -93 137 -117 255 -82 403 60 258 345 562 629 671
265 103 625 102 940 -2 124 -41 289 -122 431 -211 154 -97 164 -102 176 -90
16 16 -43 134 -109 220 -72 94 -207 220 -308 287 -332 222 -701 261 -1121 120
-313 -104 -514 -257 -749 -567 -193 -253 -274 -315 -425 -325 -46 -4 -99 -1
-131 7 -130 30 -277 128 -360 240 -55 74 -77 119 -99 203 -19 71 -19 46 -19
-1985 l-1 -2058 2190 0 2190 0 0 3025 0 3025 -1072 -2 c-590 -1 -1046 -3
-1013 -5z m1341 -4077 c60 -28 116 -81 144 -135 10 -21 101 -328 200 -681 100
-354 184 -649 187 -656 4 -11 -17 -14 -110 -14 l-116 0 -9 33 c-5 17 -31 110
-57 205 l-48 172 -321 -2 -321 -3 -55 -202 -55 -203 -113 0 c-103 0 -113 2
-108 18 3 9 84 302 181 651 97 348 187 654 200 680 30 58 87 114 145 140 67
30 188 29 256 -3z m-3126 -651 l0 -655 360 0 360 0 0 -74 c0 -41 -3 -81 -6
-90 -5 -14 -56 -16 -470 -16 l-464 0 0 745 0 745 110 0 110 0 0 -655z m1990
560 l0 -95 -252 0 c-314 -1 -345 -9 -389 -105 -15 -33 -19 -66 -19 -192 l0
-153 300 0 300 0 0 -90 0 -90 -300 0 -300 0 0 -172 c0 -146 3 -179 19 -213 44
-96 79 -105 398 -105 l254 0 -3 -87 -3 -88 -273 -3 c-224 -2 -284 1 -335 14
-157 40 -249 133 -276 279 -15 81 -15 826 0 897 31 146 136 246 289 277 30 6
64 13 75 15 11 2 131 4 268 5 l247 1 0 -95z"/>
<path d="M3473 1800 c-12 -5 -29 -19 -37 -32 -17 -26 -201 -686 -194 -693 3
-3 124 -4 270 -3 l265 3 -88 325 c-48 179 -95 339 -104 356 -25 46 -66 62
-112 44z"/>
</g>
</svg>
